<?xml version="1.0" standalone="no"?>
<!DOCTYPE svg PUBLIC "-//W3C//DTD SVG 20010904//EN"
 "http://www.w3.org/TR/2001/REC-SVG-20010904/DTD/svg10.dtd">
<svg version="1.0" xmlns="http://www.w3.org/2000/svg"
 width="1358.000000pt" height="164.000000pt" viewBox="0 0 1358.000000 164.000000"
 preserveAspectRatio="xMidYMid meet">
<metadata>
Created by potrace 1.15, written by Peter Selinger 2001-2017
</metadata>
<g transform="translate(0.000000,164.000000) scale(0.100000,-0.100000)"
fill="#000000" stroke="none">
<path d="M110 1609 c-117 -49 -135 -214 -29 -271 108 -58 238 23 226 141 -10
96 -114 165 -197 130z"/>
<path d="M1481 1585 c-216 -47 -397 -208 -474 -422 -45 -124 -61 -331 -37
-483 54 -340 296 -562 630 -577 265 -12 465 96 568 307 68 139 70 132 -45 159
-54 13 -102 25 -108 27 -5 2 -23 -24 -39 -58 -37 -80 -112 -159 -179 -189 -45
-21 -68 -24 -167 -24 -99 0 -122 3 -165 23 -124 57 -197 140 -242 275 -24 74
-27 97 -27 227 0 133 2 152 27 224 50 141 115 218 234 274 53 24 69 27 173 27
99 0 122 -3 167 -24 66 -29 140 -108 178 -186 16 -33 29 -61 30 -62 0 -1 48
10 105 25 125 32 123 29 58 162 -98 200 -290 311 -538 309 -47 0 -114 -7 -149
-14z"/>
<path d="M4780 1585 c-180 -40 -350 -174 -428 -336 -64 -131 -76 -196 -76
-399 0 -204 12 -267 76 -400 80 -167 249 -296 438 -336 90 -19 256 -14 340 11
166 50 316 176 390 328 63 131 83 244 77 432 -6 175 -22 247 -79 364 -72 150
-222 276 -388 326 -78 23 -267 29 -350 10z m332 -242 c166 -78 258 -253 258
-493 0 -240 -91 -414 -258 -493 -63 -30 -74 -32 -177 -32 -103 0 -114 2 -177
32 -119 56 -191 144 -234 288 -26 85 -26 325 0 410 50 164 132 255 281 308 38
13 73 17 145 14 82 -2 104 -7 162 -34z"/>
<path d="M12811 1589 c-198 -39 -366 -160 -454 -327 -55 -104 -78 -203 -84
-363 -9 -210 23 -370 98 -492 195 -319 661 -411 890 -176 26 27 50 49 53 49 3
0 6 -19 6 -42 0 -24 3 -60 6 -80 l7 -38 98 0 99 0 0 365 0 365 -255 0 -255 0
0 -100 0 -100 140 0 141 0 -7 -37 c-24 -132 -98 -226 -214 -274 -23 -9 -72
-14 -145 -14 -91 1 -120 5 -167 23 -112 45 -201 153 -245 297 -14 47 -18 92
-17 205 0 132 3 152 27 224 49 141 115 218 234 274 52 24 69 27 168 27 100 0
115 -2 167 -28 73 -36 147 -117 184 -201 20 -48 33 -65 43 -61 8 3 54 18 103
32 51 15 88 32 88 39 0 30 -49 143 -84 197 -103 155 -291 249 -495 246 -47 -1
-106 -5 -130 -10z"/>
<path d="M2890 850 l0 -730 430 0 430 0 0 110 0 110 -315 0 -315 0 0 620 0
620 -115 0 -115 0 0 -730z"/>
<path d="M6110 1470 l0 -110 205 0 205 0 0 -620 0 -620 115 0 115 0 0 620 0
620 205 0 205 0 0 110 0 110 -525 0 -525 0 0 -110z"/>
<path d="M7780 850 l0 -730 115 0 115 0 0 335 0 335 295 0 295 0 0 -335 0
-335 115 0 115 0 0 730 0 730 -115 0 -115 0 0 -285 0 -285 -295 0 -295 0 0
285 0 285 -115 0 -115 0 0 -730z"/>
<path d="M9540 850 l0 -730 115 0 115 0 0 730 0 730 -115 0 -115 0 0 -730z"/>
<path d="M10490 850 l0 -730 115 0 115 0 2 519 3 518 159 -281 c88 -155 220
-388 294 -518 l134 -238 124 0 124 0 0 730 0 730 -115 0 -115 0 -2 -520 -3
-521 -294 521 -295 520 -123 0 -123 0 0 -730z"/>
<path d="M50 645 l0 -525 110 0 110 0 0 525 0 525 -110 0 -110 0 0 -525z"/>
</g>
</svg>
