<?xml version="1.0" encoding="utf-8"?>
<!-- Generator: Adobe Illustrator 16.0.0, SVG Export Plug-In . SVG Version: 6.00 Build 0)  -->
<!DOCTYPE svg PUBLIC "-//W3C//DTD SVG 1.1//EN" "http://www.w3.org/Graphics/SVG/1.1/DTD/svg11.dtd">
<svg version="1.1" id="Layer_1" xmlns="http://www.w3.org/2000/svg" xmlns:xlink="http://www.w3.org/1999/xlink" x="0px" y="0px"
	 width="24px" height="22px" viewBox="0 0 24 22" enable-background="new 0 0 24 22" xml:space="preserve">
<g>
	<title>background</title>
	<rect id="canvas_background" x="-1" y="-1" fill="none" width="582" height="402"/>
</g>
<g>
	<title>Layer 1</title>
	<path id="svg_1" fill="#666666" d="M20.605,3.07c-2.162-2.247-4.459-1.401-6.619,0.845l-1.987,1.967l-1.987-1.967
		C7.851,1.669,5.554,0.823,3.393,3.07c-2.161,2.247-2.161,5.361,0,7.608l8.606,8.793l8.606-8.793
		C22.768,8.431,22.768,5.317,20.605,3.07 M22.107,11.49L11.999,21.996L1.892,11.49c-2.411-2.506-2.579-6.775-0.151-9.266
		c3.306-3.391,6.69-2.507,9.101,0L12,3.407l1.158-1.183c2.41-2.507,5.795-3.391,9.101,0C24.686,4.715,24.518,8.984,22.107,11.49"/>
</g>
</svg>
